<?xml version="1.0" encoding="utf-8"?>
<!-- Generator: Adobe Illustrator 22.1.0, SVG Export Plug-In . SVG Version: 6.00 Build 0)  -->
<svg version="1.1" id="Слой_1" xmlns="http://www.w3.org/2000/svg" xmlns:xlink="http://www.w3.org/1999/xlink" x="0px" y="0px"
	 viewBox="0 0 44 44" style="enable-background:new 0 0 44 44;" xml:space="preserve">
<style type="text/css">
	.st0{fill:#37A8DF;}
</style>
<g>
	<path class="st0" d="M24.9,0h-0.2c-0.5,0-0.9,0.4-0.9,0.9v18.3c0,0.5,0.4,0.9,0.9,0.9h18.3c0.5,0,0.9-0.4,0.9-0.9v-0.2
		C44,8.6,35.4,0,24.9,0z"/>
	<path class="st0" d="M19.2,5.5C8.6,5.5,0,14.1,0,24.8C0,35.4,8.6,44,19.2,44s19.2-8.6,19.2-19.2c0-0.5-0.4-0.9-0.9-0.9H20.2V6.4
		C20.2,5.9,19.8,5.5,19.2,5.5z"/>
</g>
</svg>
