<?xml version="1.0" encoding="utf-8"?>
<!-- Generator: Adobe Illustrator 22.1.0, SVG Export Plug-In . SVG Version: 6.00 Build 0)  -->
<svg version="1.1" id="Слой_1" xmlns="http://www.w3.org/2000/svg" xmlns:xlink="http://www.w3.org/1999/xlink" x="0px" y="0px"
	 viewBox="0 0 44 44" style="enable-background:new 0 0 44 44;" xml:space="preserve">
<style type="text/css">
	.st0{opacity:0.5;fill:#FFFFFF;}
</style>
<path class="st0" d="M22,0C9.8,0,0,9.8,0,22s9.8,22,22,22s22-9.8,22-22S34.2,0,22,0z M22,30.7c-1.4,0-2.5-1.1-2.5-2.5
	s1.1-2.5,2.5-2.5c1.4,0,2.5,1.1,2.5,2.5S23.4,30.7,22,30.7z M28.2,24.3c-0.6,0.6-1.7,0.6-2.3,0c-2.1-2.1-5.6-2.1-7.7,0
	c-0.3,0.3-0.7,0.5-1.2,0.5c-0.4,0-0.8-0.2-1.2-0.5c-0.6-0.6-0.6-1.7,0-2.3c3.4-3.4,8.9-3.4,12.3,0C28.8,22.6,28.8,23.7,28.2,24.3z
	 M32.5,20c-0.6,0.6-1.7,0.6-2.3,0c-2.2-2.2-5.1-3.4-8.2-3.4s-6,1.2-8.2,3.4c-0.3,0.3-0.7,0.5-1.2,0.5c-0.4,0-0.8-0.2-1.2-0.5
	c-0.6-0.6-0.6-1.7,0-2.3c2.8-2.8,6.5-4.4,10.5-4.4s7.7,1.6,10.5,4.4C33.2,18.3,33.2,19.3,32.5,20z"/>
</svg>
