<?xml version="1.0" encoding="utf-8"?>
<!-- Generator: Adobe Illustrator 22.1.0, SVG Export Plug-In . SVG Version: 6.00 Build 0)  -->
<svg version="1.1" id="Слой_1" xmlns="http://www.w3.org/2000/svg" xmlns:xlink="http://www.w3.org/1999/xlink" x="0px" y="0px"
	 viewBox="0 0 44 44" style="enable-background:new 0 0 44 44;" xml:space="preserve">
<style type="text/css">
	.st0{opacity:0.5;fill:#FFFFFF;}
</style>
<path class="st0" d="M22,0C9.8,0,0,9.8,0,22s9.8,22,22,22s22-9.8,22-22S34.2,0,22,0z M12.7,14.9h18.6c0.2,0,0.4,0,0.6,0.1l-9.4,8.1
	c-0.3,0.3-0.7,0.3-1,0L12.1,15C12.3,15,12.5,14.9,12.7,14.9z M11,27.4V16.6c0-0.1,0-0.2,0-0.2l6.6,5.7l-6.5,6
	C11,27.9,11,27.7,11,27.4z M31.3,29.1H12.7c-0.1,0-0.1,0-0.2,0l6.4-5.9l1.5,1.2c0.9,0.8,2.4,0.8,3.3,0l1.5-1.3l6.4,5.9
	C31.4,29.1,31.4,29.1,31.3,29.1z M33,27.4c0,0.2,0,0.4-0.1,0.6l-6.5-6l6.6-5.7c0,0.1,0,0.2,0,0.2V27.4z"/>
</svg>
