<?xml version="1.0" encoding="utf-8"?>
<!-- Generator: Adobe Illustrator 22.1.0, SVG Export Plug-In . SVG Version: 6.00 Build 0)  -->
<svg version="1.1" id="Слой_1" xmlns="http://www.w3.org/2000/svg" xmlns:xlink="http://www.w3.org/1999/xlink" x="0px" y="0px"
	 viewBox="0 0 44 44" style="enable-background:new 0 0 44 44;" xml:space="preserve">
<style type="text/css">
	.st0{opacity:0.5;fill:#FFFFFF;enable-background:new    ;}
</style>
<path class="st0" d="M22,0C9.8,0,0,9.8,0,22s9.8,22,22,22s22-9.8,22-22S34.2,0,22,0z M15.1,12c1.9-0.6,4.3-1,6.9-1s5.1,0.3,6.9,1
	c1.6,0.6,2.6,1.4,2.6,2.1c0,0.7-1,1.5-2.6,2.1c-1.9,0.6-4.3,1-6.9,1s-5.1-0.3-6.9-1c-1.6-0.6-2.5-1.4-2.6-2.1
	C12.5,13.4,13.5,12.6,15.1,12z M12.4,16c0.1,0,0.2,0.1,0.3,0.2l0.1,0.1l0.1,0.1c0.1,0,0.1,0,0.1,0c0,0.1,0.1,0.1,0.1,0.1h0.1
	c0.1,0,0.1,0,0.1,0h0.1c0.1,0,0.1,0,0.1,0c0.1,0,0.1,0,0.1,0c0.1,0,0.1,0.1,0.2,0.1s0.1,0,0.1,0c0,0.1,0.1,0.1,0.1,0.1h0.1h0.1h0.1
	h0.1h0.1c0.1,0.1,0.1,0.1,0.2,0.1c1.9,0.7,4.5,1.1,7.2,1.1c2.7,0,5.3-0.4,7.2-1.1c0.1-0.1,0.1-0.1,0.2-0.1h0.1h0.1h0.1h0.1h0.1
	c0-0.1,0.1-0.1,0.1-0.1c0.1,0,0.1,0,0.1,0c0.1,0,0.1-0.1,0.2-0.1c0.1,0,0.1,0,0.1,0c0.1,0,0.1,0,0.1,0h0.1c0.1,0,0.1,0,0.1,0h0.1
	c0-0.1,0.1-0.1,0.1-0.1c0.1,0,0.1,0,0.1,0l0.1-0.1l0.1-0.1c0.1,0,0.2-0.1,0.3-0.2v3.4c0,0.7-1,1.5-2.6,2.1c-1.9,0.6-4.3,1-6.9,1
	c-2.6,0-5.1-0.3-6.9-1c-1.6-0.6-2.6-1.4-2.6-2.1V16z M31.6,29.9c0,0.7-1,1.5-2.6,2.1c-1.9,0.6-4.3,1-6.9,1c-2.6,0-5.1-0.3-6.9-1
	c-1.6-0.6-2.6-1.4-2.6-2.1v-3.4c0.5,0.5,1.3,0.9,2.2,1.2c1.9,0.7,4.5,1.1,7.2,1.1s5.3-0.4,7.4-1.1c0.9-0.4,1.7-0.8,2.2-1.2V29.9z
	 M31.6,24.6c0,0.7-1,1.5-2.6,2.1c-1.9,0.6-4.3,1-6.9,1c-2.6,0-5.1-0.3-6.9-1c-1.6-0.6-2.6-1.4-2.6-2.1v-3.4c0.5,0.5,1.3,0.9,2.2,1.2
	c1.9,0.7,4.5,1.1,7.2,1.1s5.3-0.4,7.4-1.1c0.9-0.4,1.7-0.8,2.2-1.2V24.6z"/>
</svg>
