<?xml version="1.0" encoding="utf-8"?>
<!-- Generator: Adobe Illustrator 22.1.0, SVG Export Plug-In . SVG Version: 6.00 Build 0)  -->
<svg version="1.1" id="Слой_1" xmlns="http://www.w3.org/2000/svg" xmlns:xlink="http://www.w3.org/1999/xlink" x="0px" y="0px"
	 viewBox="0 0 36 36" style="enable-background:new 0 0 36 36;" xml:space="preserve">
<style type="text/css">
	.st0{fill:#27A6E1;}
</style>
<g id="ic_x5F_arrowBack_x0D__2">
</g>
<g id="XMLID_1473_">
	<rect id="XMLID_1481_" x="6.6" y="4.4" class="st0" width="20" height="1.1"/>
	<path id="XMLID_1480_" class="st0" d="M26.6,1.3c0,0-4.9-1.3-10-1.3c-5.2,0-10,1.3-10,1.3V3h20V1.3z"/>
	<path id="XMLID_1477_" class="st0" d="M27.9,26.7l-1.8,0.5c-3.2-2.7-5.1-9.1-5.9-12h-4.4c0.5,1.2,3.6,9.5,2.1,14.4l-1.8,0.5l1.5,5
		l1.8-0.5c1.3,1.1,3,1.6,4.8,1.1c1.7-0.5,3-1.9,3.4-3.5l1.8-0.5L27.9,26.7z M23.7,34.1c-1.7,0.5-3.6-0.5-4.1-2.2
		c-0.5-1.7,0.5-3.6,2.2-4.1c1.7-0.5,3.6,0.5,4.1,2.2C26.4,31.8,25.4,33.6,23.7,34.1z"/>
	<path id="XMLID_1474_" class="st0" d="M23.8,16.3L23.8,16.3l2.8,0.1V6.9h-20v9.5h2.8v-0.1c0-0.9,0.8-1.7,1.7-1.7h11
		C23,14.6,23.8,15.4,23.8,16.3z M16.6,12.2c-0.9,0-1.7-0.7-1.7-1.7c0-0.9,0.7-1.7,1.7-1.7c0.9,0,1.7,0.7,1.7,1.7
		C18.3,11.4,17.5,12.2,16.6,12.2z"/>
</g>
</svg>
