<?xml version="1.0" encoding="utf-8"?>
<!-- Generator: Adobe Illustrator 22.1.0, SVG Export Plug-In . SVG Version: 6.00 Build 0)  -->
<svg version="1.1" id="Слой_1" xmlns="http://www.w3.org/2000/svg" xmlns:xlink="http://www.w3.org/1999/xlink" x="0px" y="0px"
	 viewBox="0 0 36 36" style="enable-background:new 0 0 36 36;" xml:space="preserve">
<style type="text/css">
	.st0{fill:#27A6E1;}
</style>
<g id="ic_x5F_arrowBack_x0D__2">
</g>
<g id="ic_x5F_arrowDropDown_x0D_">
	<g id="XMLID_478_">
		<path id="XMLID_497_" class="st0" d="M32.7,9.2H3.3C1.4,9.2,0,10.7,0,12.5v16.4c0,1.8,1.5,3.3,3.3,3.3h29.5c1.8,0,3.3-1.5,3.3-3.3
			V12.5C36,10.6,34.6,9.2,32.7,9.2z M11.6,21.7H6.8c-0.6,0-1-0.5-1-1s0.5-1,1-1h4.8c0.6,0,1,0.5,1,1S12.2,21.7,11.6,21.7z
			 M29.4,21.7h-1.3V23c0,0.6-0.5,1-1,1s-1-0.5-1-1v-1.3h-1.3c-0.6,0-1-0.5-1-1c0-0.6,0.5-1,1-1H26v-1.3c0-0.6,0.5-1,1-1
			c0.6,0,1,0.5,1,1v1.3h1.3c0.6,0,1,0.5,1,1S29.9,21.7,29.4,21.7z"/>
		<path id="XMLID_489_" class="st0" d="M13.2,6.3c0-1.2-0.8-2.3-1.9-2.3h-4c-1,0-1.9,1-1.9,2.3v2h7.8V6.3z"/>
		<path id="XMLID_479_" class="st0" d="M30.9,6.2c0-1.2-0.8-2.3-1.9-2.3h-4c-1,0-1.9,1-1.9,2.3v2h7.8V6.2z"/>
	</g>
</g>
</svg>
