<?xml version="1.0" encoding="utf-8"?>
<!-- Generator: Adobe Illustrator 22.1.0, SVG Export Plug-In . SVG Version: 6.00 Build 0)  -->
<svg version="1.1" id="Слой_1" xmlns="http://www.w3.org/2000/svg" xmlns:xlink="http://www.w3.org/1999/xlink" x="0px" y="0px"
	 viewBox="0 0 36 36" style="enable-background:new 0 0 36 36;" xml:space="preserve">
<style type="text/css">
	.st0{fill:#27A6E1;}
</style>
<g id="ic_x5F_arrowBack_x0D__2">
</g>
<path class="st0" d="M33.7,2.9H2.3C1.1,2.9,0,4,0,5.3v25.4c0,1.3,1.1,2.3,2.3,2.3h31.3c1.3,0,2.3-1.1,2.3-2.3V5.3
	C36,4,34.9,2.9,33.7,2.9z M10.9,24.6c-0.6,0.6-1.5,0.6-2,0c-0.6-0.6-0.6-1.5,0-2l4.5-4.5l-4.5-4.5c-0.6-0.6-0.6-1.5,0-2
	c0.6-0.6,1.5-0.6,2,0l5.5,5.5c0,0,0,0,0,0c0.3,0.3,0.4,0.7,0.4,1c0,0.4-0.1,0.7-0.4,1c0,0,0,0,0,0L10.9,24.6z M26.1,25h-7.8
	c-0.8,0-1.4-0.6-1.4-1.4c0-0.8,0.6-1.4,1.4-1.4h7.8c0.8,0,1.4,0.6,1.4,1.4C27.5,24.3,26.9,25,26.1,25z"/>
</svg>
