<?xml version="1.0" encoding="utf-8"?>
<!-- Generator: Adobe Illustrator 22.1.0, SVG Export Plug-In . SVG Version: 6.00 Build 0)  -->
<svg version="1.1" id="Слой_1" xmlns="http://www.w3.org/2000/svg" xmlns:xlink="http://www.w3.org/1999/xlink" x="0px" y="0px"
	 viewBox="0 0 36 36" style="enable-background:new 0 0 36 36;" xml:space="preserve">
<style type="text/css">
	.st0{fill:#FF0000;}
</style>
<g id="ic_x5F_arrowBack_x0D__2">
</g>
<g id="ic_x5F_arrowDropDown_x0D_">
	<path id="XMLID_1424_" class="st0" d="M35.7,30.5L20,3.2c-0.9-1.5-3-1.5-3.9,0L0.3,30.5c-0.9,1.5,0.2,3.4,1.9,3.4h31.5
		C35.5,33.9,36.6,32,35.7,30.5z M17.5,11.6c0.9-0.2,1.9,0.2,2.3,1.1c0.2,0.3,0.2,0.7,0.2,1c-0.1,1-0.1,2-0.2,3
		c-0.1,1.5-0.2,3.1-0.3,4.7c0,0.5,0,0.9-0.1,1.5c0,0.8-0.7,1.5-1.5,1.5c-0.8,0-1.5-0.6-1.5-1.4c-0.1-2.4-0.3-4.8-0.4-7.2
		c0-0.6-0.1-1.3-0.1-1.9C16,12.7,16.6,11.8,17.5,11.6z M18,29.7c-1.1,0-2-0.9-2-2c0-1.1,0.9-2,2-2s2,0.9,2,2.1
		C20,28.8,19.1,29.7,18,29.7z"/>
</g>
</svg>
