<?xml version="1.0" encoding="utf-8"?>
<!-- Generator: Adobe Illustrator 22.1.0, SVG Export Plug-In . SVG Version: 6.00 Build 0)  -->
<svg version="1.1" id="Слой_1" xmlns="http://www.w3.org/2000/svg" xmlns:xlink="http://www.w3.org/1999/xlink" x="0px" y="0px"
	 viewBox="0 0 36 36" style="enable-background:new 0 0 36 36;" xml:space="preserve">
<style type="text/css">
	.st0{fill:#27A6E1;}
</style>
<g id="ic_x5F_arrowBack_x0D__2">
</g>
<g id="ic_x5F_arrowDropDown_x0D_">
</g>
<g>
	<g>
		<path class="st0" d="M33.5,4.9C33.5,4.9,33.5,4.9,33.5,4.9c0,2.7-7,4.9-15.5,4.9S2.5,7.6,2.5,4.9c0,0,0,0,0,0C2.5,2.2,9.4,0,18,0
			S33.5,2.2,33.5,4.9z"/>
	</g>
	<g>
		<path class="st0" d="M33.5,31.1C33.5,31.1,33.5,31.1,33.5,31.1c0,2.7-7,4.9-15.5,4.9S2.6,33.8,2.5,31.2c0,0,0,0,0,0l0-6.4
			c0,0,0,0,0,0c0,2.7,7,4.8,15.5,4.8s15.4-2.2,15.5-4.8c0,0,0,0,0,0L33.5,31.1z"/>
	</g>
	<g>
		<path class="st0" d="M33.5,22.4C33.5,22.4,33.5,22.4,33.5,22.4c0,2.7-7,4.9-15.5,4.9c-8.5,0-15.4-2.2-15.5-4.8c0,0,0,0,0,0l0-6.4
			c0,0,0,0,0,0c0,2.7,7,4.8,15.5,4.8c8.5,0,15.4-2.2,15.5-4.8c0,0,0,0,0,0L33.5,22.4z"/>
	</g>
	<g>
		<path class="st0" d="M33.5,13.6C33.5,13.6,33.5,13.6,33.5,13.6c0,2.7-7,4.9-15.5,4.9c-8.5,0-15.4-2.2-15.5-4.8c0,0,0,0,0,0l0-6.3
			c0,0,0,0,0,0c0,2.7,7,4.8,15.5,4.8c8.5,0,15.4-2.2,15.5-4.8c0,0,0,0,0,0L33.5,13.6z"/>
	</g>
</g>
</svg>
