<?xml version="1.0" encoding="utf-8"?>
<!-- Generator: Adobe Illustrator 22.1.0, SVG Export Plug-In . SVG Version: 6.00 Build 0)  -->
<svg version="1.1" id="Слой_1" xmlns="http://www.w3.org/2000/svg" xmlns:xlink="http://www.w3.org/1999/xlink" x="0px" y="0px"
	 viewBox="0 0 36 36" style="enable-background:new 0 0 36 36;" xml:space="preserve">
<style type="text/css">
	.st0{fill:#27A6E1;}
</style>
<g id="ic_x5F_arrowBack_x0D__2">
</g>
<g id="ic_x5F_arrowDropDown_x0D_">
</g>
<g>
	<path class="st0" d="M32.8,18c0-0.6,0.5-1.1,1.1-1.1H36C35.7,12.7,34,9,31.5,6.1L30,7.5c-0.2,0.2-0.5,0.3-0.8,0.3
		c-0.3,0-0.6-0.1-0.8-0.3c-0.5-0.5-0.5-1.2,0-1.6l1.5-1.4C27,1.9,23.2,0.3,19.1,0v2c0,0.6-0.5,1.1-1.1,1.1S16.8,2.7,16.8,2V0
		C12.7,0.2,9,1.9,6.1,4.5l1.5,1.5C8,6.4,8,7.1,7.6,7.6C7.3,7.8,7,7.9,6.7,7.9c-0.3,0-0.6-0.1-0.8-0.3L4.5,6.1C1.9,9,0.2,12.7,0,16.9
		h2.1c0.6,0,1.1,0.5,1.1,1.1c0,0.6-0.5,1.1-1.1,1.1H0c0.2,4.1,1.9,7.9,4.5,10.8l1.5-1.5c0.5-0.5,1.2-0.5,1.6,0
		c0.5,0.5,0.5,1.2,0,1.6l-1.5,1.5c2.9,2.6,6.6,4.2,10.8,4.5v-2.1c0-0.6,0.5-1.1,1.1-1.1c0.6,0,1.1,0.5,1.1,1.1V36
		c4.1-0.2,7.9-1.9,10.8-4.5l-1.5-1.5c-0.5-0.5-0.5-1.2,0-1.6c0.5-0.5,1.2-0.5,1.6,0l1.5,1.4c2.6-2.9,4.2-6.6,4.5-10.8h-2.1
		C33.3,19.1,32.8,18.6,32.8,18z M24.7,19.1H18c-0.5,0-0.9-0.3-1.1-0.7L12.4,7.8c-0.3-0.6,0-1.3,0.6-1.5c0.6-0.2,1.3,0,1.5,0.6
		l4.3,10h5.9c0.6,0,1.1,0.5,1.1,1.1C25.8,18.6,25.3,19.1,24.7,19.1z"/>
</g>
</svg>
