<?xml version="1.0" encoding="utf-8"?>
<!-- Generator: Adobe Illustrator 22.1.0, SVG Export Plug-In . SVG Version: 6.00 Build 0)  -->
<svg version="1.1" id="Слой_1" xmlns="http://www.w3.org/2000/svg" xmlns:xlink="http://www.w3.org/1999/xlink" x="0px" y="0px"
	 viewBox="0 0 36 36" style="enable-background:new 0 0 36 36;" xml:space="preserve">
<style type="text/css">
	.st0{fill:#27A6E1;}
</style>
<g id="ic_x5F_arrowBack_x0D__2">
</g>
<g id="ic_x5F_arrowDropDown_x0D_">
	<path id="XMLID_506_" class="st0" d="M7,20l3.8,3.7c0.2,0.2,0.6,0.2,0.9,0c1.8-1.4,4-2.2,6.3-2.2c2.3,0,4.6,0.8,6.4,2.3
		c0.3,0.2,0.7,0.2,0.9,0L29,20c0.3-0.3,0.3-0.7,0-0.9c-6.2-5.8-16.2-5.4-22,0C6.7,19.3,6.8,19.8,7,20z M13.9,27l3.6,3.5
		c0.3,0.3,0.7,0.3,0.9,0l3.5-3.6c0.3-0.3,0.2-0.8-0.1-1c-2.1-1.6-5.6-1.5-7.8,0.1C13.7,26.3,13.6,26.8,13.9,27z M0.2,13.3l3.7,3.7
		c0.3,0.3,0.7,0.3,0.9,0c3.7-3.3,8.1-5,13.2-5c5.1,0,9.5,1.8,13.2,5.1c0.3,0.2,0.7,0.2,0.9,0l3.7-3.7c0.3-0.3,0.3-0.7,0-1
		c-10.4-9.9-26.6-8.8-35.6,0C-0.1,12.6-0.1,13,0.2,13.3z"/>
</g>
</svg>
