<?xml version="1.0" encoding="utf-8"?>
<!-- Generator: Adobe Illustrator 22.1.0, SVG Export Plug-In . SVG Version: 6.00 Build 0)  -->
<svg version="1.1" id="Слой_1" xmlns="http://www.w3.org/2000/svg" xmlns:xlink="http://www.w3.org/1999/xlink" x="0px" y="0px"
	 viewBox="0 0 36 36" style="enable-background:new 0 0 36 36;" xml:space="preserve">
<style type="text/css">
	.st0{fill:#27A6E1;}
</style>
<g id="ic_x5F_arrowBack_x0D__2">
</g>
<g id="ic_x5F_arrowDropDown_x0D_">
	<g id="XMLID_794_">
		<g id="XMLID_812_">
			<g id="XMLID_846_">
				<path id="XMLID_851_" class="st0" d="M29.2,31.9L28.4,30l3.5-3.5l0.9,1.9L29.2,31.9z M14.6,10.3l1.9,0.9l-3.5,3.5l-1.9-0.9
					L14.6,10.3z M7.5,3.3l1.9,0.9L6,7.6L4.1,6.8L7.5,3.3z M21.3,22.9l3.5-3.5l0.9,1.9l-3.5,3.5L21.3,22.9z M35.9,28.2l-2.2-4.8
					c0,0,0,0,0,0l0,0c0,0,0,0,0,0c0-0.1-0.1-0.2-0.2-0.3c0,0-0.1-0.1-0.1-0.1c-0.1-0.1-0.1-0.1-0.2-0.2c-0.1,0-0.1-0.1-0.2-0.1
					c0,0-0.1-0.1-0.1-0.1l0,0v0l-4.3-2l-2-4.3c0,0,0,0,0,0c0.1-0.4,0.1-0.7,0.1-1.1c0,0,0,0,0-0.1c0.4,0.1,0.8,0.1,1.2,0.1
					c1.8,0,3.6-0.7,5-2.1c0.6-0.6,0.6-1.5,0-2.1L25,3.1c-0.6-0.6-1.6-0.6-2.1,0c-1.7,1.7-2.3,4.1-2,6.3c-0.4,0-0.7,0-1.1,0.1
					c0,0-0.1,0-0.1-0.1l-4.3-2l-2-4.3c0,0,0,0,0,0l0,0c0,0,0,0,0,0c0-0.1-0.1-0.2-0.2-0.3c0,0-0.1-0.1-0.1-0.1
					C13.1,2.6,13,2.6,13,2.5c-0.1,0-0.1-0.1-0.2-0.1c0,0-0.1-0.1-0.1-0.1l0,0l0,0L7.8,0.1C7.3-0.1,6.6,0,6.2,0.4L0.4,6.2
					C0.1,6.5-0.1,7,0,7.5C0.1,8,0.4,8.4,0.9,8.6l4.3,2l2,4.3c0,0,0,0,0,0l0,0c0,0,0,0,0,0c0,0.1,0.1,0.2,0.2,0.3
					c0,0,0.1,0.1,0.1,0.1c0.1,0.1,0.1,0.1,0.2,0.2c0,0,0.1,0,0.1,0.1c0.1,0,0.1,0.1,0.2,0.1l3.7,1.7c-0.1,0.3-0.1,0.5-0.1,0.8
					L7,19.6c-0.5,0.2-0.9,0.6-1,1.1c-0.1,0.5,0,1,0.4,1.4l2.7,2.7l-2.7,2.7c-0.6,0.6-0.6,1.5,0,2.1C6.7,29.9,7.1,30,7.5,30
					s0.8-0.1,1.1-0.4l2.7-2.7l2.7,2.7c0.3,0.3,0.7,0.4,1.1,0.4c0.1,0,0.2,0,0.4,0c0.5-0.1,0.9-0.5,1.1-1l1.4-4.5
					c0.3,0,0.5-0.1,0.8-0.1l1.7,3.7c0,0,0,0,0,0l0,0c0,0,0,0,0,0c0,0.1,0.1,0.2,0.2,0.3c0,0,0.1,0.1,0.1,0.1
					c0.1,0.1,0.1,0.1,0.2,0.2c0.1,0,0.1,0.1,0.2,0.1c0,0,0.1,0.1,0.1,0.1l0,0h0l4.3,2l2,4.3c0.2,0.4,0.6,0.8,1.1,0.9
					c0.1,0,0.2,0,0.3,0c0.4,0,0.8-0.2,1.1-0.4l5.7-5.7C36,29.4,36.1,28.7,35.9,28.2L35.9,28.2z"/>
			</g>
		</g>
		<circle id="XMLID_811_" class="st0" cx="31.5" cy="5.5" r="1.7"/>
	</g>
</g>
</svg>
