<?xml version="1.0" encoding="utf-8"?>
<!-- Generator: Adobe Illustrator 22.1.0, SVG Export Plug-In . SVG Version: 6.00 Build 0)  -->
<svg version="1.1" id="Слой_1" xmlns="http://www.w3.org/2000/svg" xmlns:xlink="http://www.w3.org/1999/xlink" x="0px" y="0px"
	 viewBox="0 0 36 36" style="enable-background:new 0 0 36 36;" xml:space="preserve">
<style type="text/css">
	.st0{fill:#27A6E1;}
</style>
<g id="ic_x5F_arrowBack_x0D__2">
</g>
<g id="ic_x5F_arrowDropDown_x0D_">
	<g id="XMLID_519_">
		<path id="XMLID_791_" class="st0" d="M11.6,5.2c-0.4-0.4-0.9-0.4-1.3,0C6,9.5,6,16.4,10.3,20.7c0.2,0.2,0.4,0.3,0.7,0.3
			s0.5-0.1,0.7-0.3c0.4-0.4,0.4-0.9,0-1.3C8,15.9,8,10.1,11.6,6.6C12,6.2,12,5.6,11.6,5.2z"/>
		<path id="XMLID_783_" class="st0" d="M24.5,20.7c0.2,0.2,0.4,0.3,0.7,0.3c0.2,0,0.5-0.1,0.7-0.3c4.3-4.3,4.3-11.2,0-15.5
			c-0.4-0.4-0.9-0.4-1.3,0c-0.4,0.4-0.4,0.9,0,1.3c3.5,3.5,3.5,9.3,0,12.8C24.1,19.7,24.1,20.3,24.5,20.7z"/>
		<path id="XMLID_769_" class="st0" d="M6,26c0.2,0,0.5-0.1,0.7-0.3c0.4-0.4,0.4-0.9,0-1.3c-6.3-6.3-6.3-16.5,0-22.7
			C7,1.2,7,0.7,6.6,0.3s-0.9-0.4-1.3,0c-7,7-7,18.4,0,25.4C5.5,25.9,5.7,26,6,26z"/>
		<path id="XMLID_755_" class="st0" d="M29.4,0.2c-0.4,0.4-0.4,0.9,0,1.3c6.3,6.3,6.3,16.5,0,22.7c-0.4,0.4-0.4,0.9,0,1.3
			c0.2,0.2,0.4,0.3,0.7,0.3c0.2,0,0.5-0.1,0.7-0.3c7-7,7-18.4,0-25.4C30.4-0.1,29.8-0.1,29.4,0.2z"/>
		<path id="XMLID_523_" class="st0" d="M21.2,9.8c-1.8-1.8-4.7-1.8-6.4,0c-1.8,1.8-1.8,4.7,0,6.4c0.2,0.2,0.5,0.4,0.8,0.6L8.8,34
			c-0.2,0.6,0,1.3,0.5,1.7c0.2,0.2,0.5,0.3,0.9,0.3s0.7-0.1,0.9-0.3l7-6l7,6c0.3,0.2,0.6,0.3,0.9,0.3c0.3,0,0.6-0.1,0.9-0.3
			c0.5-0.4,0.7-1.1,0.5-1.7l-6.9-17.3c0.3-0.2,0.5-0.4,0.8-0.6C23,14.4,23,11.6,21.2,9.8z M11.2,33l2.7-6.8l2.6,2.3L11.2,33z
			 M24.8,33l-5.3-4.6l2.6-2.3L24.8,33z M21.4,24.3L18,27.2l-3.4-2.9l2.7-6.8c0.2,0,0.4,0,0.7,0c0.2,0,0.4,0,0.7,0L21.4,24.3z"/>
	</g>
</g>
</svg>
