<?xml version="1.0" encoding="utf-8"?>
<!-- Generator: Adobe Illustrator 22.1.0, SVG Export Plug-In . SVG Version: 6.00 Build 0)  -->
<svg version="1.1" id="Слой_1" xmlns="http://www.w3.org/2000/svg" xmlns:xlink="http://www.w3.org/1999/xlink" x="0px" y="0px"
	 viewBox="0 0 36 36" style="enable-background:new 0 0 36 36;" xml:space="preserve">
<style type="text/css">
	.st0{fill:#27A6E1;}
</style>
<g id="ic_x5F_arrowBack_x0D__2">
</g>
<path id="XMLID_501_" class="st0" d="M13.5,31.5h9c0,2.5-2,4.5-4.5,4.5S13.5,34,13.5,31.5z M18.2,0c-1.9-0.1-3.5,1.3-3.5,3.2
	c0,0.1,0,0.1,0,0.2v1.7c-4,1.4-6.7,5.2-6.7,9.5v2.8c0,1.8-0.7,3.5-2,4.8l-0.5,0.5c-0.9,1-1.2,2.4-0.6,3.6c0.6,1.1,1.7,1.8,3,1.8
	h20.5c1.8,0,3.2-1.4,3.2-3.2v-0.1c0-0.8-0.3-1.5-0.7-2.1l-1-1.2c-1.1-1.2-1.6-2.8-1.6-4.4v-2.6c0-4.3-2.7-8.1-6.7-9.5V3.6
	C21.4,1.7,20,0.1,18.2,0z"/>
</svg>
