<?xml version="1.0" encoding="utf-8"?>
<!-- Generator: Adobe Illustrator 22.1.0, SVG Export Plug-In . SVG Version: 6.00 Build 0)  -->
<svg version="1.1" id="Слой_1" xmlns="http://www.w3.org/2000/svg" xmlns:xlink="http://www.w3.org/1999/xlink" x="0px" y="0px"
	 viewBox="0 0 36 36" style="enable-background:new 0 0 36 36;" xml:space="preserve">
<style type="text/css">
	.st0{fill:#27A6E1;}
</style>
<g id="ic_x5F_arrowBack_x0D__2">
</g>
<g id="ic_x5F_arrowDropDown_x0D_">
	<g id="XMLID_46_" transform="translate(0,-952.36218)">
		<g>
			<path id="XMLID_37_" class="st0" d="M11.1,952.4c-2,0-3.6,1.5-3.8,3.4h21.4c-0.2-1.9-1.8-3.4-3.8-3.4H11.1z M7.3,957.5v24h21.4
				v-24H7.3z M7.3,983.2v1.3c0,2.1,1.7,3.9,3.9,3.9h13.7c2.1,0,3.9-1.7,3.9-3.9v-1.3H7.3z M15,984.9h6c0.5,0,0.9,0.4,0.9,0.9
				c0,0.5-0.4,0.9-0.9,0.9h-6c-0.5,0-0.9-0.4-0.9-0.9C14.1,985.3,14.5,984.9,15,984.9z"/>
		</g>
	</g>
</g>
</svg>
