<?xml version="1.0" encoding="utf-8"?>
<!-- Generator: Adobe Illustrator 22.1.0, SVG Export Plug-In . SVG Version: 6.00 Build 0)  -->
<svg version="1.1" id="Слой_1" xmlns="http://www.w3.org/2000/svg" xmlns:xlink="http://www.w3.org/1999/xlink" x="0px" y="0px"
	 viewBox="0 0 36 36" style="enable-background:new 0 0 36 36;" xml:space="preserve">
<style type="text/css">
	.st0{fill:#27A6E1;}
</style>
<g id="ic_x5F_arrowBack_x0D__2">
</g>
<g id="ic_x5F_arrowDropDown_x0D_">
</g>
<g id="ic_x5F_mail">
	<g id="XMLID_63_">
		<g>
			<path id="XMLID_30_" class="st0" d="M27,12.5V9c0-5-4-9-9-9S9,4,9,9v3.5c-2.8,2.5-4.5,6-4.5,10C4.5,30,10.5,36,18,36
				s13.5-6,13.5-13.5C31.5,18.5,29.8,14.9,27,12.5z M20.2,24.8c0,1.2-1,2.2-2.2,2.2s-2.2-1-2.2-2.2v-4.5c0-1.2,1-2.2,2.2-2.2
				s2.2,1,2.2,2.2V24.8z M22.5,9.8C21.1,9.3,19.6,9,18,9c-1.6,0-3.1,0.3-4.5,0.8V9c0-2.5,2-4.5,4.5-4.5s4.5,2,4.5,4.5V9.8z"/>
		</g>
	</g>
</g>
</svg>
