<?xml version="1.0" encoding="utf-8"?>
<!-- Generator: Adobe Illustrator 22.1.0, SVG Export Plug-In . SVG Version: 6.00 Build 0)  -->
<svg version="1.1" id="Слой_1" xmlns="http://www.w3.org/2000/svg" xmlns:xlink="http://www.w3.org/1999/xlink" x="0px" y="0px"
	 viewBox="0 0 36 36" style="enable-background:new 0 0 36 36;" xml:space="preserve">
<style type="text/css">
	.st0{fill:#27A6E1;}
</style>
<g id="ic_x5F_arrowBack_x0D__2">
</g>
<g id="ic_x5F_arrowDropDown_x0D_">
	<g id="XMLID_431_">
		<path id="XMLID_454_" class="st0" d="M1.5,19.3c0-4.6,1.9-8.1,3.8-10.4l0,0c1.9-2.2,3.7-3.3,3.8-3.4l0,0c1.2-0.7,2.8-0.3,3.5,0.9
			l0,0c0.7,1.2,0.3,2.8-0.9,3.5l0,0l0,0c0,0,0,0,0,0l0,0c0,0,0,0,0,0l0,0c0,0-0.1,0-0.1,0.1l0,0c-0.1,0.1-0.3,0.2-0.6,0.4l0,0
			c-0.5,0.4-1.2,1-1.8,1.8l0,0c-1.3,1.6-2.6,3.9-2.6,7.1l0,0c0,3.2,1.3,6.1,3.4,8.2l0,0c2.1,2.1,4.9,3.4,8.1,3.4l0,0
			c3.2,0,6-1.3,8.1-3.4l0,0c2.1-2.1,3.4-5,3.4-8.2l0,0c0-3.1-1.2-5.3-2.5-6.9l0,0c-1.2-1.5-2.5-2.4-2.6-2.4l0,0c0,0,0,0,0,0l0,0
			c0,0,0,0,0,0l0,0c0,0,0,0,0,0l0,0l0,0c-1.2-0.7-1.6-2.3-0.9-3.5l0,0c0.7-1.2,2.3-1.6,3.5-0.9l0,0c0.2,0.1,2,1.2,3.8,3.4l0,0
			c1.9,2.2,3.8,5.7,3.8,10.4l0,0C34.5,28.5,27.1,36,18,36l0,0C8.9,36,1.5,28.5,1.5,19.3L1.5,19.3z"/>
		<path id="XMLID_447_" class="st0" d="M15.5,18v-7.7V2.6C15.5,1.2,16.6,0,18,0l0,0c1.4,0,2.5,1.2,2.5,2.6l0,0v7.7V18h0
			c0,1.4-1.1,2.6-2.5,2.6l0,0C16.6,20.6,15.5,19.4,15.5,18L15.5,18z"/>
	</g>
</g>
</svg>
