<?xml version="1.0" encoding="utf-8"?>
<!-- Generator: Adobe Illustrator 22.1.0, SVG Export Plug-In . SVG Version: 6.00 Build 0)  -->
<svg version="1.1" id="Слой_1" xmlns="http://www.w3.org/2000/svg" xmlns:xlink="http://www.w3.org/1999/xlink" x="0px" y="0px"
	 viewBox="0 0 36 36" style="enable-background:new 0 0 36 36;" xml:space="preserve">
<style type="text/css">
	.st0{fill:#27A6E1;}
</style>
<g id="ic_x5F_arrowBack_x0D__2">
</g>
<g id="ic_x5F_arrowDropDown_x0D_">
	<path class="st0" d="M31.8,0H4.2C1.9,0,0,1.9,0,4.2v27.7C0,34.1,1.9,36,4.2,36h27.7c2.3,0,4.2-1.9,4.2-4.2V4.2
		C36,1.9,34.1,0,31.8,0z M16.5,7c0-0.8,0.7-1.5,1.5-1.5c0.8,0,1.5,0.7,1.5,1.5v9.6c0,0.8-0.7,1.5-1.5,1.5c-0.8,0-1.5-0.7-1.5-1.5V7z
		 M9.9,29c0,0.8-0.7,1.5-1.5,1.5S7,29.9,7,29v-9.9c0-0.8,0.7-1.5,1.5-1.5s1.5,0.7,1.5,1.5V29z M21.6,30.5h-7.2
		c-0.8,0-1.5-0.7-1.5-1.5c0-0.8,0.7-1.5,1.5-1.5h7.2c0.8,0,1.5,0.7,1.5,1.5C23.1,29.9,22.4,30.5,21.6,30.5z M21.6,25.2h-7.2
		c-0.8,0-1.5-0.7-1.5-1.5c0-0.8,0.7-1.5,1.5-1.5h7.2c0.8,0,1.5,0.7,1.5,1.5C23.1,24.5,22.4,25.2,21.6,25.2z M29.1,29
		c0,0.8-0.7,1.5-1.5,1.5s-1.5-0.7-1.5-1.5v-9.9c0-0.8,0.7-1.5,1.5-1.5s1.5,0.7,1.5,1.5V29z"/>
</g>
</svg>
