<?xml version="1.0" encoding="utf-8"?>
<!-- Generator: Adobe Illustrator 22.1.0, SVG Export Plug-In . SVG Version: 6.00 Build 0)  -->
<svg version="1.1" id="Слой_1" xmlns="http://www.w3.org/2000/svg" xmlns:xlink="http://www.w3.org/1999/xlink" x="0px" y="0px"
	 viewBox="0 0 36 36" style="enable-background:new 0 0 36 36;" xml:space="preserve">
<style type="text/css">
	.st0{fill:#27A6E1;}
</style>
<g id="ic_x5F_arrowBack_x0D__2">
</g>
<g>
	<polygon class="st0" points="32,10 24,10 22,10 22,8 22,0 14,0 14,22 32,22 	"/>
	<polygon class="st0" points="24,0 24,8 32,8 	"/>
	<polygon class="st0" points="12,14 4,14 4,36 22,36 22,24 14,24 12,24 12,22 	"/>
	<path class="st0" d="M32,30L32,30v-2h2l-4-4l-4,4h2v2c0,1.1-0.9,2-2,2h-2v4h2C29.3,36,32,33.3,32,30z"/>
	<path class="st0" d="M10,8H8V6c0-1.1,0.9-2,2-2h2V0h-2C6.7,0,4,2.7,4,6v2H2l4,4L10,8z"/>
</g>
</svg>
