<?xml version="1.0" encoding="utf-8"?>
<!-- Generator: Adobe Illustrator 22.1.0, SVG Export Plug-In . SVG Version: 6.00 Build 0)  -->
<svg version="1.1" id="Слой_1" xmlns="http://www.w3.org/2000/svg" xmlns:xlink="http://www.w3.org/1999/xlink" x="0px" y="0px"
	 viewBox="0 0 36 36" style="enable-background:new 0 0 36 36;" xml:space="preserve">
<style type="text/css">
	.st0{fill:#27A6E1;}
</style>
<g id="ic_x5F_arrowBack_x0D__2">
</g>
<g id="ic_x5F_arrowDropDown_x0D_">
	<path class="st0" d="M35.3,10.9c-0.3-0.4-0.7-0.7-1.1-1.1c-0.9-0.9-1.8-1.8-2.6-2.6C30.5,6.1,29.4,5,28.4,4
		c-0.9-0.9-1.8-1.8-2.7-2.7c-0.4-0.4-0.8-0.8-1.2-1.2C24.4,0,24.2,0,24,0H4.6c-0.5,0-1,0-1.4,0C2,0.2,1.1,0.9,0.8,2
		C0.7,2.3,0.6,2.7,0.6,3v29.7c0,0.1,0,0.2,0,0.3c0,0.8,0.3,1.5,0.8,2.1C2,35.7,2.8,36,3.5,36c0.1,0,0.2,0,0.4,0h28.6c0,0,0,0,0,0
		c1.1,0,2.1-0.6,2.6-1.6c0.2-0.4,0.3-0.9,0.3-1.4V11.4C35.4,11.2,35.4,11,35.3,10.9z M4.5,10.9V4.3c0,0,0,0,0,0c0,0,0,0,0,0
		c0,0,0,0,0,0c0,0,0,0,0,0c0,0,0,0,0,0c0,0,0,0,0,0l0,0c0,0,0,0,0,0c0,0,0,0,0,0c0,0,0,0,0,0c0,0,0,0,0,0c0,0,0,0,0,0c0,0,0,0,0,0
		c0,0,0,0,0.1-0.1c0,0,0,0,0,0c0,0,0,0,0,0c0,0,0,0,0,0c0,0,0,0,0,0c0,0,0,0,0,0c0,0,0,0,0,0c0,0,0,0,0.1,0c0,0,0,0,0,0c0,0,0,0,0,0
		c0,0,0,0,0,0c0,0,0,0,0,0c0.7,0,1.4,0,2.1,0h15c0.2,0,0.4,0.2,0.4,0.4v6.6c0,0,0,0,0,0c0,0,0,0,0,0l0,0c0,0,0,0,0,0c0,0,0,0,0,0
		c0,0,0,0,0,0l0,0l0,0c0,0,0,0,0,0c0,0,0,0,0,0c0,0,0,0,0,0c0,0,0,0,0,0c0,0,0,0,0,0c-0.1,0.1-0.2,0.1-0.3,0.1h0c0,0,0,0,0,0h0
		c-0.7,0-1.4,0-2.1,0h-15C4.7,11.2,4.5,11.1,4.5,10.9z M25.2,23.7c0,0,0,0.1,0,0.1l0,0c0,0.3,0,0.6-0.1,1c-0.1,0.5-0.2,1-0.4,1.4
		c-0.2,0.6-0.5,1.1-0.8,1.6c0,0,0,0,0,0c-0.1,0.1-0.1,0.1-0.2,0.2c0,0-0.1,0.1-0.1,0.1s-0.1,0.1-0.1,0.1s-0.1,0.1-0.1,0.1
		c-0.9,1.1-2.1,1.8-3.4,2.2c0,0,0,0,0,0c0,0-0.1,0-0.1,0c-0.1,0-0.3,0.1-0.4,0.1c-0.9,0.2-1.9,0.2-2.8,0c-0.1,0-0.1,0-0.2,0
		c-0.1,0-0.2,0-0.3-0.1c0,0,0,0-0.1,0c0,0,0,0-0.1,0c0,0-0.1,0-0.1,0c0,0-0.1,0-0.1,0s-0.1,0-0.1,0c-0.2-0.1-0.4-0.2-0.6-0.2
		c-0.5-0.2-0.9-0.5-1.4-0.8l0,0c0,0-0.1-0.1-0.1-0.1c0,0,0,0,0,0c0,0-0.1-0.1-0.1-0.1c-0.2-0.1-0.3-0.3-0.5-0.5
		c-0.2-0.2-0.4-0.5-0.6-0.7c-0.1-0.1-0.1-0.1-0.2-0.2c-0.1-0.1-0.1-0.1-0.2-0.2c0,0-0.1-0.1-0.1-0.1c0,0,0-0.1-0.1-0.1
		c-0.2-0.3-0.3-0.6-0.4-0.9c0,0,0-0.1,0-0.1c0,0,0-0.1,0-0.1c0-0.1-0.1-0.2-0.1-0.3c0,0,0-0.1,0-0.1c0-0.1-0.1-0.2-0.1-0.2
		C11.1,25.5,11,25.3,11,25c0,0,0-0.1,0-0.1c0-0.1,0-0.2,0-0.3c0,0,0-0.1,0-0.1c-0.1-0.5-0.1-0.9,0-1.4c0-0.4,0.1-0.7,0.2-1.1
		c0,0,0-0.1,0-0.1l0,0v0c0-0.2,0.1-0.4,0.2-0.5c0.3-0.8,0.7-1.6,1.3-2.3c0.9-1.1,2-1.8,3.3-2.2l0,0c0.1,0,0.1,0,0.2,0l0,0
		c0.1,0,0.1,0,0.2-0.1c0.1,0,0.2-0.1,0.3-0.1c0,0,0.1,0,0.1,0c0.9-0.2,1.9-0.2,2.8,0c0.1,0,0.1,0,0.2,0c0,0,0.1,0,0.1,0
		c0,0,0.1,0,0.1,0c0.1,0,0.1,0,0.2,0l0,0c0.2,0,0.3,0.1,0.5,0.2c0.1,0,0.3,0.1,0.4,0.2c0.1,0.1,0.3,0.1,0.4,0.2
		c0.1,0.1,0.2,0.1,0.4,0.2c0.1,0.1,0.2,0.1,0.3,0.2c0,0,0.1,0.1,0.1,0.1c0.1,0.1,0.1,0.1,0.2,0.2c0.6,0.5,1.2,1,1.6,1.6
		c0.6,0.8,1,1.8,1.2,2.9c0,0.1,0.1,0.3,0.1,0.4c0,0.1,0,0.2,0,0.3c0,0.1,0,0.2,0,0.3C25.1,23.5,25.1,23.6,25.2,23.7
		C25.1,23.7,25.1,23.7,25.2,23.7L25.2,23.7C25.1,23.7,25.2,23.7,25.2,23.7z"/>
</g>
</svg>
