<?xml version="1.0" encoding="utf-8"?>
<!-- Generator: Adobe Illustrator 22.1.0, SVG Export Plug-In . SVG Version: 6.00 Build 0)  -->
<svg version="1.1" id="Слой_1" xmlns="http://www.w3.org/2000/svg" xmlns:xlink="http://www.w3.org/1999/xlink" x="0px" y="0px"
	 viewBox="0 0 36 36" style="enable-background:new 0 0 36 36;" xml:space="preserve">
<style type="text/css">
	.st0{fill:#27A6E1;}
</style>
<g id="ic_x5F_arrowBack_x0D__2">
</g>
<path class="st0" d="M30.1,6.1c0.8,0,1.4,0.6,1.4,1.4v0l0,8.2l4.6,0l0-8.2v0c0-3.3-2.7-5.9-5.9-5.9l-9,0l0,4.6L30.1,6.1z M31,29.5
	c-0.3,0.3-0.6,0.4-1,0.4l-9,0l0,4.6l9,0c1.6,0,3.1-0.6,4.2-1.7c1.1-1.1,1.7-2.6,1.7-4.2l0-8.2l-4.6,0l0,8.2
	C31.4,28.9,31.3,29.2,31,29.5z M5.9,29.9c-0.4,0-0.7-0.1-1-0.4c-0.3-0.3-0.4-0.6-0.4-1v0l0-8.2l-4.6,0l0,8.2v0
	c0,1.6,0.6,3.1,1.7,4.2c1.1,1.1,2.6,1.7,4.2,1.7l8.9,0l0-4.6L5.9,29.9z M5,6.5c0.3-0.3,0.6-0.4,1-0.4l8.9,0l0-4.6L6,1.5
	c-1.6,0-3.1,0.6-4.2,1.7C0.7,4.4,0,5.9,0,7.5l0,8.2l4.6,0l0-8.2C4.6,7.1,4.7,6.8,5,6.5z"/>
</svg>
