<?xml version="1.0" encoding="utf-8"?>
<!-- Generator: Adobe Illustrator 21.0.2, SVG Export Plug-In . SVG Version: 6.00 Build 0)  -->
<svg version="1.1" id="Слой_1" xmlns="http://www.w3.org/2000/svg" xmlns:xlink="http://www.w3.org/1999/xlink" x="0px" y="0px"
	 viewBox="0 0 120 120" style="enable-background:new 0 0 120 120;" xml:space="preserve">
<style type="text/css">
	.st0{fill:#333333;}
	.st1{fill:#3F51B5;}
	.st2{fill:#FFFFFF;}
</style>
<g>
	<path id="XMLID_9_" class="st0" d="M95,36.8c0,18.8-28.7,38.3-34,82.3c-5.3-43.9-34-63.5-34-82.3s15.2-34,34-34S95,17.9,95,36.8z"
		/>
	<circle id="XMLID_8_" class="st1" cx="61" cy="36.3" r="28.5"/>
	<path class="st2" d="M73.7,32.4l-1.9-1.5c-0.4-0.4-0.6-0.6-1.2-0.6h-3.2c-0.6,0-1.1,0.5-1.1,1.1v1.1c0,0.7,0.5,1.1,1.1,1.1h5.3
		c2.7,0,5,2.6,5.3,5.3c0.1,0.7-1,0.7-1.1,0c-0.2-2.2-2-4.2-4.2-4.2h-5.3c-1.2,0-2.1-1-2.1-2.1v-1.1c0-1.1,1-2.1,2.1-2.1h3.2
		c0.9,0,1.3,0.4,1.9,1l2.3,2.2C75.3,32.9,74.2,32.9,73.7,32.4z M49.5,35.8c2,0,3.6,1.6,3.6,3.7c0,2.1-1.6,3.7-3.6,3.7
		s-3.6-1.6-3.6-3.7C45.8,37.4,47.4,35.8,49.5,35.8z M49.5,36.8c-1.5,0-2.7,1.2-2.7,2.7s1.2,2.7,2.7,2.7s2.7-1.2,2.7-2.7
		C52.1,37.9,50.9,36.8,49.5,36.8z M72.7,35.8c2,0,3.6,1.6,3.6,3.7c0,2.1-1.6,3.7-3.6,3.7s-3.6-1.6-3.6-3.7
		C69.1,37.4,70.7,35.8,72.7,35.8z M72.7,36.8c-1.5,0-2.7,1.2-2.7,2.7s1.2,2.7,2.7,2.7s2.7-1.2,2.7-2.7
		C75.4,37.9,74.2,36.8,72.7,36.8z M54.6,39.9h12.7c0.7,0,0.7,1.1,0,1.1H54.6C54,40.9,54,39.9,54.6,39.9z M54.6,32.4l3-2.2
		c0.6-0.6,1.4-1,2.3-1H62c1.1,0,2.1,1,2.1,2.1v1.1c0,1.1-0.9,2.1-2.1,2.1H49.3c-2.2,0-4.1,2.1-4.3,4.3c-0.1,0.7-1,0.6-1-0.1
		c0.3-2.7,2.6-5.3,5.3-5.3H62c0.6,0,1.1-0.4,1.1-1.1v-1.1c0-0.6-0.5-1-1.1-1h-2.1c-0.6,0-1.2,0.2-1.6,0.6l-2.6,1.5
		C55.2,32.9,54.2,32.9,54.6,32.4z"/>
</g>
</svg>
