<?xml version="1.0" encoding="utf-8"?>
<!-- Generator: Adobe Illustrator 22.1.0, SVG Export Plug-In . SVG Version: 6.00 Build 0)  -->
<svg version="1.1" id="Слой_1" xmlns="http://www.w3.org/2000/svg" xmlns:xlink="http://www.w3.org/1999/xlink" x="0px" y="0px"
	 viewBox="0 0 36 36" style="enable-background:new 0 0 36 36;" xml:space="preserve">
<style type="text/css">
	.st0{fill:#4D4D4D;}
</style>
<g id="ic_x5F_arrowBack_x0D__2">
</g>
<g id="ic_x5F_arrowDropDown_x0D_">
</g>
<g>
	<path class="st0" d="M36,17.9C36,17.9,36,17.9,36,17.9C36,17.9,36,17.9,36,17.9C36,17.9,36,17.8,36,17.9c0-0.1,0-0.1,0-0.1
		c0,0,0,0,0,0c0-0.3-0.2-0.5-0.4-0.7c-1.1-1.4-2.5-2.6-3.9-3.7c-3-2.4-6.4-4.4-10.2-5.2c-2.2-0.5-4.4-0.5-6.6-0.1
		c-2,0.4-3.9,1.1-5.7,2c-2.8,1.4-5.4,3.4-7.6,5.7c-0.4,0.4-0.8,0.8-1.2,1.3c-0.5,0.6-0.5,1.3,0,1.9c1.1,1.4,2.5,2.6,3.9,3.7
		c3,2.4,6.4,4.4,10.2,5.2c2.2,0.5,4.4,0.5,6.6,0.1c2-0.4,3.9-1.1,5.7-2c2.8-1.4,5.4-3.4,7.6-5.7c0.4-0.4,0.8-0.8,1.2-1.3
		c0.2-0.2,0.3-0.5,0.4-0.7l0,0c0,0,0,0,0,0c0,0,0,0,0,0l0,0c0,0,0,0,0,0C36,18,36,18,36,17.9C36,18,36,18,36,17.9z M18,24.9
		c-3.8,0-6.9-3.1-6.9-6.9c0-3.8,3.1-6.9,6.9-6.9s6.9,3.1,6.9,6.9S21.8,24.9,18,24.9z"/>
	<circle class="st0" cx="18" cy="18" r="2.3"/>
</g>
</svg>
