<?xml version="1.0" encoding="utf-8"?>
<!-- Generator: Adobe Illustrator 22.1.0, SVG Export Plug-In . SVG Version: 6.00 Build 0)  -->
<svg version="1.1" id="Слой_1" xmlns="http://www.w3.org/2000/svg" xmlns:xlink="http://www.w3.org/1999/xlink" x="0px" y="0px"
	 viewBox="0 0 36 36" style="enable-background:new 0 0 36 36;" xml:space="preserve">
<style type="text/css">
	.st0{fill:#27A6E1;}
</style>
<g id="ic_x5F_arrowBack_x0D__2">
</g>
<g id="ic_x5F_arrowDropDown_x0D_">
	<path id="XMLID_1173_" class="st0" d="M32.9,3.5h-8.2c-1.7,0-2.5,1.5-2.5,3.2v8.8c0,1.7,0.8,3.3,2.5,3.3h1.6v10.7
		c0,0.1-0.2,0.3-0.1,0.4l2.5,2.6c0.1,0.1,0.3,0.1,0.4,0l2.6-2.6c0.1-0.1,0.2-0.2,0.2-0.4v-1.3c0-0.2-0.1-0.3-0.2-0.4l-1.4-1.4
		c-0.1-0.1-0.1-0.2,0-0.3l1.2-1.2c0.3-0.3,0.3-0.8,0-1.1l-1.2-1.2c-0.1-0.1-0.1-0.2,0-0.3l1.4-1.4c0.1-0.1,0.2-0.3,0.2-0.4v-1.6h1.1
		c1.7,0,3.1-1.6,3.1-3.3V6.7C36,4.9,34.6,3.5,32.9,3.5z M29.1,13.6c-1.4,0-2.6-1.2-2.6-2.6c0-1.4,1.1-2.6,2.6-2.6
		c1.4,0,2.6,1.1,2.6,2.6C31.6,12.5,30.5,13.6,29.1,13.6z M19.4,15.4V6.7c0-1-0.5-0.4,0-1.8H18c-0.3,0-0.6-0.5-0.9-0.5
		c-1.8,0-3.6-0.1-5.4,0.1C10.4,4.7,8.6,5,7.4,6.8c-0.7,1-1.8,3.6-2.7,5.8c-0.5-0.6-1.3-0.9-2.1-0.9H1.8c-1,0-1.8,0.6-1.8,1.6v1.3
		c0,1,0.9,1.2,1.9,2.6h0.9c-0.1,0-0.1-0.1-0.2,0c-0.9,1.4-1.2,2.6-1.2,4.2v9c0,1,0.7,2,1.8,2h2.4c1,0,1.4-1,1.4-2v-0.8h16.6v-8.6
		C19.4,20.4,19.4,18.1,19.4,15.4z M12.3,21.6c-0.2,0.6-0.7,1.2-1.4,1.2H7.5c-0.8,0-1.5-0.8-1.5-1.6l0-1c0-0.8,0.7-1.5,1.5-1.5
		c0.1,0,0.2,0,0.4,0l3.5,1C12.1,20,12.6,20.9,12.3,21.6z"/>
</g>
</svg>
