<?xml version="1.0" encoding="utf-8"?>
<!-- Generator: Adobe Illustrator 22.1.0, SVG Export Plug-In . SVG Version: 6.00 Build 0)  -->
<svg version="1.1" id="Слой_1" xmlns="http://www.w3.org/2000/svg" xmlns:xlink="http://www.w3.org/1999/xlink" x="0px" y="0px"
	 viewBox="0 0 36 36" style="enable-background:new 0 0 36 36;" xml:space="preserve">
<style type="text/css">
	.st0{fill:#27A6E1;}
</style>
<g id="ic_x5F_arrowBack_x0D__2">
</g>
<g id="XMLID_3059_" transform="translate(0,-992.3622)">
	<g>
		<path id="XMLID_30_" class="st0" d="M15.5,992.4l-1.3,4.4c-1.1,0.3-2.2,0.8-3.2,1.3l-4-2.2l-3.6,3.6l2.2,4c-0.6,1-1,2.1-1.3,3.2
			l-4.4,1.3v5l4.4,1.3c0.3,1.1,0.8,2.2,1.3,3.2l-2.2,4l3.6,3.6l4-2.2c1,0.6,2.1,1,3.2,1.3l1.3,4.4h5l1.3-4.4
			c1.1-0.3,2.2-0.8,3.2-1.3l4,2.2l3.6-3.6l-2.2-4c0.6-1,1-2.1,1.3-3.2l4.4-1.3v-5l-4.4-1.3c-0.3-1.1-0.8-2.2-1.3-3.2l2.2-4l-3.6-3.6
			l-4,2.2c-1-0.6-2.1-1-3.2-1.3l-1.3-4.4H15.5z M18,1002.2c4.5,0,8.2,3.7,8.2,8.2s-3.7,8.2-8.2,8.2s-8.2-3.7-8.2-8.2
			S13.5,1002.2,18,1002.2z M18,1007.1c-1.8,0-3.3,1.4-3.3,3.3s1.4,3.3,3.3,3.3s3.3-1.4,3.3-3.3S19.8,1007.1,18,1007.1z"/>
	</g>
</g>
</svg>
