<?xml version="1.0" encoding="utf-8"?>
<!-- Generator: Adobe Illustrator 22.1.0, SVG Export Plug-In . SVG Version: 6.00 Build 0)  -->
<svg version="1.1" id="Слой_1" xmlns="http://www.w3.org/2000/svg" xmlns:xlink="http://www.w3.org/1999/xlink" x="0px" y="0px"
	 viewBox="0 0 36 36" style="enable-background:new 0 0 36 36;" xml:space="preserve">
<style type="text/css">
	.st0{fill:#27A6E1;}
</style>
<g id="ic_x5F_arrowBack_x0D__2">
</g>
<g id="ic_x5F_arrowDropDown_x0D_">
	<g>
		<g>
			<path class="st0" d="M30.8,6.1l-5.5-5.4c-0.4-0.4-1-0.7-1.6-0.7H9.1C6.6,0,4.6,2,4.6,4.5v27c0,2.5,2,4.5,4.5,4.5h17.9
				c2.5,0,4.5-2,4.5-4.5V7.7C31.4,7.1,31.2,6.5,30.8,6.1z M12.9,31.8H11c-1.2,0-2.3-1-2.3-2.3v-1.9c0-0.3,0.3-0.6,0.6-0.6h3.6
				c0.3,0,0.6,0.3,0.6,0.6v3.6C13.5,31.5,13.2,31.8,12.9,31.8z M12.9,18.1H9.4c-0.3,0-0.6-0.3-0.6-0.6v-1.9c0-1.2,1-2.3,2.3-2.3h1.9
				c0.3,0,0.6,0.3,0.6,0.6v3.6C13.5,17.8,13.2,18.1,12.9,18.1z M19.7,31.8h-3.4c-0.3,0-0.6-0.3-0.6-0.6v-3.6c0-0.3,0.3-0.6,0.6-0.6
				l3.4,0c0.3,0,0.6,0.3,0.6,0.6v3.6C20.3,31.5,20,31.8,19.7,31.8z M19.7,18l-3.4,0c-0.3,0-0.6-0.3-0.6-0.6v-3.6
				c0-0.3,0.3-0.6,0.6-0.6h3.4c0.3,0,0.6,0.3,0.6,0.6v3.6C20.3,17.8,20,18,19.7,18z M27.2,29.5c0,1.2-1,2.3-2.3,2.3h-1.9
				c-0.3,0-0.6-0.3-0.6-0.6v-3.6c0-0.3,0.3-0.6,0.6-0.6h3.6c0.3,0,0.6,0.3,0.6,0.6V29.5z M8.8,24.3v-3.4c0-0.3,0.3-0.6,0.6-0.6
				l17.3,0c0.3,0,0.6,0.3,0.6,0.6v3.4c0,0.3-0.3,0.6-0.6,0.6l-17.3,0C9,24.8,8.8,24.6,8.8,24.3z M26.6,18h-3.6
				c-0.3,0-0.6-0.3-0.6-0.6v-3.6c0-0.3,0.3-0.6,0.6-0.6H25c1.2,0,2.3,1,2.3,2.3v1.9C27.2,17.8,27,18,26.6,18z"/>
		</g>
	</g>
</g>
</svg>
