<?xml version="1.0" encoding="utf-8"?>
<!-- Generator: Adobe Illustrator 22.1.0, SVG Export Plug-In . SVG Version: 6.00 Build 0)  -->
<svg version="1.1" id="Слой_1" xmlns="http://www.w3.org/2000/svg" xmlns:xlink="http://www.w3.org/1999/xlink" x="0px" y="0px"
	 viewBox="0 0 36 36" style="enable-background:new 0 0 36 36;" xml:space="preserve">
<style type="text/css">
	.st0{fill:#27A6E1;}
</style>
<g id="ic_x5F_arrowBack_x0D__2">
</g>
<g id="ic_x5F_arrowDropDown_x0D_">
	<g>
		<path class="st0" d="M13.9,34.9l-0.1-0.1c-0.1-0.2-0.2-0.4-0.3-0.6L13.4,34c-0.3-0.5-0.5-1-0.7-1.6l-0.1-0.2
			c0-0.1-0.1-0.3-0.1-0.4h-6c2.3,1.9,5,3.2,7.9,3.8l0,0C14.2,35.4,14,35.1,13.9,34.9z"/>
		<path class="st0" d="M10.4,16.5c0-0.1,0-0.3,0-0.4c0-0.4,0-0.8,0.1-1.1l0-0.6c0-0.6,0.1-1.1,0.1-1.7l0-0.1
			c0.1-0.6,0.1-1.1,0.2-1.6c0-0.1,0-0.2,0-0.3l0-0.3c0.1-0.4,0.1-0.7,0.2-1c0-0.1,0.1-0.3,0.1-0.4l0.1-0.4c0-0.3,0.1-0.5,0.2-0.8
			c0-0.1,0.1-0.3,0.1-0.4l0.1-0.4c0.1-0.2,0.1-0.4,0.2-0.7c0-0.1,0.1-0.2,0.1-0.3H4.5C1.8,9.1,0.3,13,0.1,17h10.3L10.4,16.5z"/>
		<path class="st0" d="M11.8,29.8c0-0.1-0.1-0.2-0.1-0.3c-0.1-0.2-0.1-0.4-0.2-0.7l-0.1-0.4c0-0.1-0.1-0.2-0.1-0.3
			c-0.1-0.3-0.1-0.5-0.2-0.8l-0.1-0.3c0-0.1-0.1-0.3-0.1-0.4c-0.1-0.3-0.1-0.6-0.2-1l0-0.3c0-0.1,0-0.2,0-0.3
			c-0.1-0.5-0.1-1-0.2-1.6l0-0.1c-0.1-0.6-0.1-1.1-0.1-1.7l0-0.7c0-0.3,0-0.7,0-1c0-0.1,0-0.3,0-0.4l0-0.5H0.1
			c0.2,4,1.8,7.9,4.5,10.9v0L11.8,29.8L11.8,29.8z"/>
		<path class="st0" d="M24.3,6.4c0.1,0.2,0.1,0.4,0.2,0.6l0.1,0.5c0,0.1,0.1,0.2,0.1,0.3c0.1,0.3,0.1,0.5,0.2,0.8L24.9,9
			c0,0.1,0.1,0.3,0.1,0.4c0.1,0.3,0.1,0.7,0.2,1l0,0.2c0,0.1,0,0.3,0.1,0.4c0.1,0.5,0.1,1,0.2,1.5l0,0.1c0.1,0.6,0.1,1.1,0.1,1.7
			c0,0.1,0,0.2,0,0.3l0,0.4c0,0.4,0,0.7,0.1,1.1c0,0.1,0,0.3,0,0.4l0,0.5h10.3c-0.2-4-1.8-7.9-4.5-10.9h-7.3
			C24.2,6.2,24.3,6.3,24.3,6.4z"/>
		<path class="st0" d="M12.5,3.8l0.1-0.3C12.8,3.3,12.9,3,13,2.7c0.1-0.3,0.2-0.5,0.4-0.8l0.1-0.2c0.1-0.2,0.2-0.4,0.3-0.6L13.9,1
			c0.1-0.2,0.3-0.4,0.4-0.6l0,0C11.4,1,8.7,2.3,6.4,4.2h6C12.4,4.1,12.5,4,12.5,3.8z"/>
		<path class="st0" d="M23.7,16.6c0-0.2,0-0.3,0-0.5c0-0.3,0-0.5,0-0.8l0-0.6c0-0.1,0-0.2,0-0.3c0-0.3,0-0.5-0.1-0.8l0-0.5
			c0-0.1,0-0.2,0-0.4c0-0.4-0.1-0.9-0.2-1.3l0-0.3c-0.1-0.5-0.2-1-0.2-1.5c0-0.1,0-0.2-0.1-0.3L22.9,9c-0.1-0.3-0.1-0.5-0.2-0.8
			c0-0.1-0.1-0.2-0.1-0.4l-0.1-0.4c-0.1-0.2-0.1-0.5-0.2-0.7c0-0.1-0.1-0.2-0.1-0.4l-0.1-0.4l-8.5,0l-0.1,0.4c0,0.1-0.1,0.2-0.1,0.4
			c-0.1,0.2-0.1,0.4-0.1,0.6l-0.1,0.5c0,0.1-0.1,0.2-0.1,0.3c-0.1,0.3-0.1,0.6-0.2,0.9L13,9.4c0,0.1,0,0.2-0.1,0.3
			c-0.1,0.5-0.2,1-0.2,1.5l0,0.1c-0.1,0.5-0.1,1-0.2,1.5c0,0.1,0,0.2,0,0.3l0,0.2c0,0.4-0.1,0.8-0.1,1.1c0,0.1,0,0.3,0,0.4l0,0.5
			c0,0.3,0,0.5,0,0.8c0,0.2,0,0.3,0,0.5l0,0.4l11.5,0L23.7,16.6z"/>
		<path class="st0" d="M22.2,1.2c0.1,0.2,0.2,0.4,0.3,0.6l0.1,0.2c0.3,0.5,0.5,1.1,0.7,1.6l0.1,0.2c0.1,0.1,0.1,0.3,0.2,0.4h6
			c-2.3-1.9-5-3.2-7.9-3.8C21.8,0.6,22,0.8,22.1,1L22.2,1.2z"/>
		<path class="st0" d="M21.5,4c0-0.1-0.1-0.2-0.1-0.3l-0.1-0.3c0-0.1-0.1-0.2-0.1-0.3L21,2.9c0-0.1-0.1-0.2-0.1-0.3l-0.1-0.2
			c0-0.1-0.1-0.1-0.1-0.2l-0.4-0.7c0,0-0.1-0.1-0.1-0.2l-0.1-0.1c0,0-0.1-0.1-0.1-0.1c0,0-0.1-0.1-0.1-0.1l-0.1-0.2
			c0,0-0.1-0.1-0.1-0.1l-0.2-0.2c0,0-0.1-0.1-0.1-0.1l-0.2-0.1c0,0-0.1,0-0.1-0.1l-0.1-0.1c0,0-0.1,0-0.1-0.1l-0.2-0.1
			c0,0,0,0-0.1,0l-0.1,0c-0.1,0-0.1,0-0.1,0l-0.1,0c-0.2,0-0.3,0-0.4,0l-0.1,0c-0.1,0-0.1,0-0.2,0l-0.1,0c0,0-0.1,0-0.1,0l-0.1,0.1
			c0,0-0.1,0-0.1,0.1L17,0.4c-0.1,0-0.1,0.1-0.1,0.1l-0.1,0.1c0,0-0.1,0.1-0.1,0.1l-0.1,0.1c-0.1,0.1-0.1,0.1-0.1,0.1l-0.1,0.1
			c-0.1,0.1-0.1,0.1-0.1,0.2l-0.1,0.2c-0.1,0.1-0.1,0.1-0.1,0.2c0,0-0.1,0.1-0.1,0.1l-0.1,0.1c0,0.1-0.1,0.1-0.1,0.2l-0.1,0.2
			c-0.1,0.1-0.1,0.2-0.2,0.3L15,2.9c0,0.1-0.1,0.2-0.1,0.2c0,0.1-0.1,0.2-0.1,0.3c0,0.1-0.1,0.2-0.1,0.2c-0.1,0.1-0.1,0.2-0.1,0.3
			c0,0.1,0,0.1-0.1,0.2h7.2L21.5,4z"/>
		<path class="st0" d="M12.3,19.8c0,0.3,0,0.5,0,0.8l0,0.5c0,0.1,0,0.3,0,0.4c0,0.3,0.1,0.7,0.1,1l0,0.3c0,0.1,0,0.2,0,0.3
			c0.1,0.5,0.1,1,0.2,1.5l0,0.1c0.1,0.5,0.2,1,0.2,1.5c0,0.1,0,0.2,0.1,0.3l0.1,0.3c0.1,0.3,0.1,0.6,0.2,0.8c0,0.1,0.1,0.2,0.1,0.4
			l0.1,0.4c0.1,0.2,0.1,0.4,0.2,0.7c0,0.1,0.1,0.2,0.1,0.4l0.1,0.4h8.5l0.1-0.4c0-0.1,0.1-0.2,0.1-0.4c0.1-0.2,0.1-0.4,0.1-0.6
			l0.1-0.5c0-0.1,0-0.2,0.1-0.3c0.1-0.2,0.1-0.5,0.2-0.7l0.1-0.4c0-0.1,0-0.2,0.1-0.3c0.1-0.5,0.2-1,0.2-1.5l0-0.3
			c0.1-0.4,0.1-0.8,0.2-1.3c0-0.1,0-0.2,0-0.4l0-0.4c0-0.3,0.1-0.6,0.1-0.9c0-0.1,0-0.2,0-0.4l0-0.6c0-0.2,0-0.5,0-0.7
			c0-0.1,0-0.3,0-0.5l0-0.4l-11.5,0l0,0.4C12.3,19.5,12.3,19.6,12.3,19.8z"/>
		<path class="st0" d="M25.6,18.9l0,0.5c0,0.1,0,0.3,0,0.5c0,0.4,0,0.7-0.1,1.1l0,0.7c0,0.6-0.1,1.1-0.1,1.7l0,0.1
			c-0.1,0.5-0.1,1-0.2,1.5c0,0.1,0,0.2-0.1,0.4l-0.1,0.5c0,0.3-0.1,0.5-0.1,0.8c0,0.1-0.1,0.3-0.1,0.4l-0.1,0.5
			c0,0.2-0.1,0.4-0.1,0.6c0,0.2-0.1,0.3-0.1,0.5l-0.1,0.4c-0.1,0.2-0.1,0.4-0.2,0.6c0,0.1-0.1,0.2-0.1,0.3h7.3
			c2.7-3,4.2-6.9,4.5-10.9L25.6,18.9L25.6,18.9z"/>
		<path class="st0" d="M23.5,32.1l-0.1,0.2c-0.2,0.6-0.5,1.1-0.7,1.6l-0.1,0.2c-0.1,0.2-0.2,0.4-0.3,0.6l-0.1,0.1
			c-0.1,0.2-0.3,0.4-0.4,0.6l0,0c2.9-0.6,5.6-1.9,7.9-3.8h-6C23.6,31.9,23.5,32,23.5,32.1z"/>
		<path class="st0" d="M14.5,31.9c0,0.1,0.1,0.2,0.1,0.3c0,0.1,0.1,0.2,0.1,0.3l0.1,0.3c0,0.1,0.1,0.2,0.1,0.3l0.2,0.3
			c0,0.1,0.1,0.1,0.1,0.2c0,0.1,0.1,0.2,0.1,0.2l0.3,0.4c0.1,0.1,0.1,0.1,0.1,0.2l0.3,0.3c0,0,0.1,0.1,0.1,0.1l0.1,0.1
			c0,0,0.1,0.1,0.1,0.1c0,0,0.1,0.1,0.1,0.1l0.2,0.2c0,0,0.1,0.1,0.1,0.1l0.1,0c0.1,0.1,0.1,0.1,0.1,0.1c0,0,0.1,0,0.1,0.1l0.2,0.1
			c0,0,0,0,0.1,0l0.1,0.1L17.2,36l0.1-0.2c0,0,0.1,0,0.1,0l0.1,0c0.1,0,0.1,0,0.2,0l0.1,0c0.1,0,0.1,0,0.2,0c0.1,0,0.1,0,0.2,0
			l0.1,0c0.1,0,0.1,0,0.2,0l0.1,0c0.1,0,0.1,0,0.1-0.1l0.2-0.1c0,0,0.1,0,0.1-0.1l0.2,0.2L19,35.6l0.1,0c0.1,0,0.1-0.1,0.1-0.1
			c0,0,0,0,0.1,0l0.3-0.3c0.1-0.1,0.1-0.1,0.1-0.1l0.2-0.2c0-0.1,0.1-0.1,0.1-0.1l0.1-0.2c0.1-0.1,0.1-0.1,0.1-0.2l0.1-0.2
			c0.1-0.1,0.1-0.2,0.1-0.2l0.1-0.2c0-0.1,0.1-0.1,0.1-0.2l0.1-0.2c0-0.1,0.1-0.2,0.1-0.3l0.1-0.2c0-0.1,0.1-0.2,0.1-0.3l0.3-0.7
			h-7.2C14.4,31.8,14.5,31.8,14.5,31.9z"/>
	</g>
</g>
</svg>
