<?xml version="1.0" encoding="utf-8"?>
<!-- Generator: Adobe Illustrator 22.1.0, SVG Export Plug-In . SVG Version: 6.00 Build 0)  -->
<svg version="1.1" id="Слой_1" xmlns="http://www.w3.org/2000/svg" xmlns:xlink="http://www.w3.org/1999/xlink" x="0px" y="0px"
	 viewBox="0 0 36 36" style="enable-background:new 0 0 36 36;" xml:space="preserve">
<style type="text/css">
	.st0{fill:#27A6E1;}
</style>
<g id="ic_x5F_arrowBack_x0D__2">
</g>
<g id="ic_x5F_arrowDropDown_x0D_">
</g>
<g>
	<path class="st0" d="M34.9,23.2V6.6c0-1.8-0.7-3.5-1.9-4.6C31.8,0.7,30.1,0,28.3,0H7.7C5.9,0,4.2,0.7,3,1.9S1.1,4.8,1.1,6.6v16.6
		c0,1.8,0.7,3.5,1.9,4.6s2.8,1.9,4.6,1.9H20l8.3,6c0.4,0.3,1.1,0.2,1.4-0.2c0.2-0.3,0.2-0.6,0.2-0.9l-1.1-4.9
		c1.6-0.1,3.1-0.8,4.2-1.9C34.1,26.7,34.9,25,34.9,23.2L34.9,23.2z M11.7,15.9c0,1.3-1.1,2.4-2.4,2.4C8,18.4,7,17.3,7,15.9
		c0-1.3,1.1-2.4,2.4-2.4C10.6,13.5,11.7,14.6,11.7,15.9L11.7,15.9z M26.7,18.3c-1.3,0-2.4-1.1-2.4-2.4c0-1.3,1.1-2.4,2.4-2.4
		c1.3,0,2.4,1.1,2.4,2.4C29.1,17.2,28,18.3,26.7,18.3L26.7,18.3z M18,18.3c-1.3,0-2.4-1.1-2.4-2.4c0-1.3,1.1-2.4,2.4-2.4
		c1.3,0,2.4,1.1,2.4,2.4C20.4,17.2,19.3,18.3,18,18.3L18,18.3z"/>
</g>
</svg>
