<?xml version="1.0" encoding="utf-8"?>
<!-- Generator: Adobe Illustrator 22.1.0, SVG Export Plug-In . SVG Version: 6.00 Build 0)  -->
<svg version="1.1" id="Слой_1" xmlns="http://www.w3.org/2000/svg" xmlns:xlink="http://www.w3.org/1999/xlink" x="0px" y="0px"
	 viewBox="0 0 36 36" style="enable-background:new 0 0 36 36;" xml:space="preserve">
<style type="text/css">
	.st0{fill:#27A6E1;}
</style>
<g id="ic_x5F_arrowBack_x0D__2">
</g>
<g id="ic_x5F_arrowDropDown_x0D_">
</g>
<g id="ic_x5F_mail">
	<g id="XMLID_1519_">
		<g>
			<g id="XMLID_28_">
				<path class="st0" d="M29,17.4h2.3c0-7-5.7-12.8-12.8-12.8V7C24.3,7,29,11.7,29,17.4z"/>
			</g>
			<g id="XMLID_27_">
				<path class="st0" d="M34.8,25.5l-9.3-3.5l-3.5,3.5c-4.6-3.1-8.5-7-11.6-11.6l3.5-3.5l-3.5-9.3H9.8c-2.6,0-5,1-6.8,2.8l0,0
					c-1.9,1.9-3,4.5-3,7.2l0,0c0,1.8,0.5,3.6,1.4,5.1c4.4,7.6,10.7,13.9,18.3,18.3c1.6,0.9,3.3,1.4,5.1,1.4c2.7,0,5.3-1.1,7.2-3l0,0
					c1.8-1.8,2.8-4.3,2.8-6.8V25.5z"/>
			</g>
			<g id="XMLID_26_">
				<path class="st0" d="M18.6,0v2.3c8.3,0,15.1,6.8,15.1,15.1H36C36,7.8,28.2,0,18.6,0z"/>
			</g>
		</g>
	</g>
</g>
</svg>
