<?xml version="1.0" encoding="utf-8"?>
<!-- Generator: Adobe Illustrator 22.1.0, SVG Export Plug-In . SVG Version: 6.00 Build 0)  -->
<svg version="1.1" id="Слой_1" xmlns="http://www.w3.org/2000/svg" xmlns:xlink="http://www.w3.org/1999/xlink" x="0px" y="0px"
	 viewBox="0 0 36 36" style="enable-background:new 0 0 36 36;" xml:space="preserve">
<style type="text/css">
	.st0{fill:#27A6E1;}
</style>
<g id="ic_x5F_arrowBack_x0D__2">
</g>
<path id="XMLID_973_" class="st0" d="M36,33.7L23.6,21.3c0.7-0.9,1.2-1.8,1.7-2.9c2.8-6.7-0.3-14.4-7-17.2c-1.6-0.7-3.4-1-5.1-1v0
	C5.9,0.1,0,6,0,13.3c0,5.3,3.2,10.1,8,12.1c4.6,2,9.7,1.1,13.4-1.9l12.4,12.4L36,33.7z M13.2,23.3c-5.6,0-10.1-4.5-10.1-10.1
	S7.6,3.2,13.2,3.2v0c5.6,0,10.1,4.5,10.1,10.1S18.7,23.3,13.2,23.3z"/>
</svg>
