<?xml version="1.0" encoding="utf-8"?>
<!-- Generator: Adobe Illustrator 22.1.0, SVG Export Plug-In . SVG Version: 6.00 Build 0)  -->
<svg version="1.1" id="Слой_1" xmlns="http://www.w3.org/2000/svg" xmlns:xlink="http://www.w3.org/1999/xlink" x="0px" y="0px"
	 viewBox="0 0 36 36" style="enable-background:new 0 0 36 36;" xml:space="preserve">
<style type="text/css">
	.st0{fill:#CCCCCC;}
</style>
<g id="ic_x5F_arrowBack_x0D__2">
</g>
<g id="ic_x5F_arrowDropDown_x0D_">
</g>
<g>
	<polygon class="st0" points="11.6,13 9.6,11 0,11 0,17 11.6,17 	"/>
	<polygon class="st0" points="11.6,23 11.6,19 0,19 0,25 9.6,25 	"/>
	<path class="st0" d="M10.2,9C10.2,9,10.2,9,10.2,9c0.1,0,0.2,0,0.2,0.1c0,0,0.1,0,0.1,0s0,0,0.1,0c0,0,0.1,0.1,0.2,0.1l2.6,2.6
		c0,0,0.1,0.1,0.1,0.2c0,0,0,0,0,0.1c0,0,0,0.1,0,0.1c0,0,0,0.1,0,0.1c0,0,0,0,0,0.1c0,0.1,0,0.1,0,0.2v9.8h8.8v-8.8H18
		c-0.6,0-1-0.4-1-1c0,0,0,0,0-0.1V8.8l-2.6-2.6c-0.4-0.4-0.4-1,0-1.4c0.4-0.4,1-0.4,1.4,0L18,7L24,1H12l1.5,1.5c0.4,0.4,0.4,1,0,1.4
		c-0.2,0.2-0.4,0.3-0.7,0.3c-0.2,0-0.5-0.1-0.7-0.3L9.1,1H5.3C2.4,1,0,3.4,0,6.3V9h10C10,9,10.1,9,10.2,9z"/>
	<path class="st0" d="M5.3,35H9l8-7.9v-2.7h-4l-2.4,2.4c0,0-0.1,0.1-0.2,0.1c0,0,0,0-0.1,0s-0.1,0-0.1,0c0,0-0.1,0-0.1,0
		c0,0,0,0-0.1,0c-0.1,0-0.1,0-0.2,0H0v2.7C0,32.6,2.4,35,5.3,35z"/>
	<path class="st0" d="M24,32.1l2.9,2.9h3.8c2.9,0,5.3-2.4,5.3-5.3V27H26c-0.1,0-0.1,0-0.2,0c0,0,0,0-0.1,0c0,0-0.1,0-0.1,0
		c0,0-0.1,0-0.1,0s0,0-0.1,0c0,0-0.1-0.1-0.2-0.1L23,24.4h-4v2.8l2.6,2.6c0.4,0.4,0.4,1,0,1.4c-0.2,0.2-0.4,0.3-0.7,0.3
		s-0.5-0.1-0.7-0.3L18,29l-6.1,6H24l-1.5-1.5c-0.4-0.4-0.4-1,0-1.4C23,31.7,23.6,31.7,24,32.1z"/>
	<path class="st0" d="M36,6.3C36,3.4,33.6,1,30.7,1h-3.8L19,8.9v2.7h4l2.4-2.4c0,0,0.1-0.1,0.2-0.1c0,0,0,0,0.1,0c0,0,0.1,0,0.1,0
		c0,0,0.1,0,0.1,0c0,0,0,0,0.1,0C25.9,9,26,9,26,9h10V6.3z"/>
	<polygon class="st0" points="36,11 26.4,11 24.4,13 24.4,17 36,17 	"/>
	<polygon class="st0" points="36,19 24.4,19 24.4,23 26.4,25 36,25 	"/>
</g>
</svg>
