<?xml version="1.0" encoding="utf-8"?>
<!-- Generator: Adobe Illustrator 22.1.0, SVG Export Plug-In . SVG Version: 6.00 Build 0)  -->
<svg version="1.1" id="Слой_1" xmlns="http://www.w3.org/2000/svg" xmlns:xlink="http://www.w3.org/1999/xlink" x="0px" y="0px"
	 viewBox="0 0 54 54" style="enable-background:new 0 0 54 54;" xml:space="preserve">
<style type="text/css">
	.st0{fill:#FFFFFF;}
	.st1{fill:#27A6E1;}
</style>
<circle class="st0" cx="27" cy="27" r="27"/>
<g id="XMLID_2114_">
	<path id="XMLID_2143_" class="st1" d="M20.9,14.9c-0.4-0.4-0.9-0.4-1.3,0c-4,4-4,10.6,0,14.7c0.2,0.2,0.4,0.3,0.6,0.3
		c0.2,0,0.4-0.1,0.6-0.3c0.4-0.4,0.4-0.9,0-1.3c-3.4-3.4-3.4-8.8,0-12.1C21.3,15.8,21.3,15.2,20.9,14.9z"/>
	<path id="XMLID_2141_" class="st1" d="M33.1,29.6c0.2,0.2,0.4,0.3,0.6,0.3s0.4-0.1,0.6-0.3c4-4,4-10.6,0-14.7
		c-0.4-0.4-0.9-0.4-1.3,0c-0.4,0.4-0.4,0.9,0,1.3c3.4,3.4,3.4,8.8,0,12.1C32.8,28.6,32.8,29.2,33.1,29.6z"/>
	<path id="XMLID_2138_" class="st1" d="M15.6,34.6c0.2,0,0.4-0.1,0.6-0.3c0.4-0.4,0.4-0.9,0-1.3c-6-6-6-15.6,0-21.5
		c0.4-0.4,0.4-0.9,0-1.3c-0.4-0.4-0.9-0.4-1.3,0c-6.6,6.6-6.6,17.4,0,24.1C15.2,34.5,15.4,34.6,15.6,34.6z"/>
	<path id="XMLID_2134_" class="st1" d="M37.8,10.2c-0.4,0.4-0.4,0.9,0,1.3c6,6,6,15.6,0,21.5c-0.4,0.4-0.4,0.9,0,1.3
		c0.2,0.2,0.4,0.3,0.6,0.3c0.2,0,0.4-0.1,0.6-0.3c6.6-6.6,6.6-17.4,0-24.1C38.7,9.9,38.1,9.9,37.8,10.2z"/>
	<path id="XMLID_2115_" class="st1" d="M30.1,19.2c-1.7-1.7-4.4-1.7-6.1,0c-1.7,1.7-1.7,4.4,0,6.1c0.2,0.2,0.5,0.4,0.8,0.6
		l-6.5,16.3c-0.2,0.6,0,1.2,0.4,1.6c0.2,0.2,0.5,0.3,0.8,0.3c0.3,0,0.6-0.1,0.9-0.3L27,38l6.7,5.7c0.3,0.2,0.5,0.3,0.9,0.3
		c0.3,0,0.5-0.1,0.8-0.3c0.5-0.4,0.7-1,0.4-1.6l-6.5-16.4c0.3-0.2,0.5-0.4,0.8-0.6C31.8,23.6,31.8,20.9,30.1,19.2z M20.6,41.2
		l2.6-6.5l2.5,2.2L20.6,41.2z M33.5,41.2l-5.1-4.3l2.5-2.2L33.5,41.2z M30.2,32.9L27,35.7l-3.2-2.7l2.6-6.5c0.2,0,0.4,0,0.6,0
		c0.2,0,0.4,0,0.6,0L30.2,32.9z"/>
</g>
</svg>
