<?xml version="1.0" encoding="utf-8"?>
<!-- Generator: Adobe Illustrator 22.1.0, SVG Export Plug-In . SVG Version: 6.00 Build 0)  -->
<svg version="1.1" id="Слой_1" xmlns="http://www.w3.org/2000/svg" xmlns:xlink="http://www.w3.org/1999/xlink" x="0px" y="0px"
	 viewBox="0 0 54 54" style="enable-background:new 0 0 54 54;" xml:space="preserve">
<style type="text/css">
	.st0{fill:#27A6E1;}
</style>
<g id="XMLID_2114_">
	<path id="XMLID_2143_" class="st0" d="M17.4,7.8c-0.6-0.6-1.4-0.6-2,0C9,14.2,9,24.6,15.4,31.1c0.3,0.3,0.6,0.4,1,0.4
		c0.4,0,0.7-0.1,1-0.4c0.6-0.6,0.6-1.4,0-2c-5.3-5.3-5.3-13.9,0-19.2C18,9.3,18,8.4,17.4,7.8z"/>
	<path id="XMLID_2141_" class="st0" d="M36.7,31.1c0.3,0.3,0.6,0.4,1,0.4s0.7-0.1,1-0.4c6.4-6.4,6.4-16.8,0-23.3
		c-0.6-0.6-1.4-0.6-2,0s-0.6,1.4,0,2c5.3,5.3,5.3,13.9,0,19.2C36.1,29.6,36.1,30.5,36.7,31.1z"/>
	<path id="XMLID_2138_" class="st0" d="M8.9,39c0.4,0,0.7-0.1,1-0.4c0.6-0.6,0.6-1.4,0-2c-9.4-9.4-9.4-24.7,0-34.1
		c0.6-0.6,0.6-1.4,0-2c-0.6-0.6-1.4-0.6-2,0C-2.5,10.9-2.5,28,8,38.5C8.2,38.8,8.6,39,8.9,39z"/>
	<path id="XMLID_2134_" class="st0" d="M44.1,0.4c-0.6,0.6-0.6,1.4,0,2c9.4,9.4,9.4,24.7,0,34.1c-0.6,0.6-0.6,1.4,0,2
		c0.3,0.3,0.6,0.4,1,0.4c0.4,0,0.7-0.1,1-0.4C56.5,28,56.5,10.9,46,0.4C45.5-0.1,44.6-0.1,44.1,0.4z"/>
	<path id="XMLID_2115_" class="st0" d="M31.9,14.6c-2.7-2.7-7-2.7-9.6,0c-2.7,2.7-2.7,7,0,9.6c0.4,0.4,0.8,0.6,1.2,0.9L13.1,51
		c-0.4,0.9-0.1,1.9,0.7,2.6c0.4,0.3,0.8,0.4,1.3,0.4s1-0.1,1.3-0.5l10.6-9l10.6,9C38,53.9,38.5,54,39,54c0.4,0,0.9-0.1,1.3-0.4
		c0.8-0.6,1.1-1.6,0.7-2.5L30.7,25.2c0.4-0.3,0.8-0.6,1.2-0.9C34.6,21.7,34.6,17.3,31.9,14.6z M16.8,49.5l4-10.2l4,3.4L16.8,49.5z
		 M37.3,49.5l-8-6.9l4-3.4L37.3,49.5z M32.1,36.4l-5,4.3l-5-4.3l4-10.2c0.4,0.1,0.6,0.1,1,0.1c0.4,0,0.6,0,1-0.1L32.1,36.4z"/>
</g>
</svg>
